G04 PROTEUS RS274X GERBER FILE*
%FSLAX45Y45*%
%MOMM*%
G01*
%ADD24C,0.203200*%
%ADD25C,0.200000*%
%TD.AperFunction*%
D24*
X+444500Y-64000D02*
X+443120Y-29001D01*
X+431921Y+40999D01*
X+408602Y+110999D01*
X+370885Y+180999D01*
X+313619Y+250997D01*
X+243619Y+307793D01*
X+173619Y+345190D01*
X+103619Y+368254D01*
X+33619Y+379227D01*
X+0Y+380500D01*
X-444500Y-64000D02*
X-443120Y-29001D01*
X-431921Y+40999D01*
X-408602Y+110999D01*
X-370885Y+180999D01*
X-313619Y+250997D01*
X-243619Y+307793D01*
X-173619Y+345190D01*
X-103619Y+368254D01*
X-33619Y+379227D01*
X+0Y+380500D01*
X-444500Y-64000D02*
X-443120Y-98999D01*
X-431921Y-168999D01*
X-408602Y-238999D01*
X-370885Y-308999D01*
X-313619Y-378997D01*
X-243619Y-435793D01*
X-173619Y-473190D01*
X-103619Y-496254D01*
X-33619Y-507227D01*
X+0Y-508500D01*
X+444500Y-64000D02*
X+443120Y-98999D01*
X+431921Y-168999D01*
X+408602Y-238999D01*
X+370885Y-308999D01*
X+313619Y-378997D01*
X+243619Y-435793D01*
X+173619Y-473190D01*
X+103619Y-496254D01*
X+33619Y-507227D01*
X+0Y-508500D01*
X+254000Y-445000D02*
X+317500Y-508500D01*
X+444500Y-381500D01*
X+381000Y-318000D01*
X-127000Y+482100D02*
X-95250Y+512580D01*
X-63500Y+512580D01*
X-31750Y+482100D01*
X-31750Y+451620D01*
X-63500Y+421140D01*
X-95250Y+421140D01*
X-127000Y+451620D01*
X-127000Y+482100D01*
X-63500Y+451620D02*
X-31750Y+421140D01*
X+31750Y+482100D02*
X+63500Y+512580D01*
X+63500Y+421140D01*
X+434500Y-1796000D02*
X+433120Y-1761001D01*
X+421921Y-1691001D01*
X+398602Y-1621001D01*
X+360885Y-1551001D01*
X+303619Y-1481003D01*
X+233619Y-1424207D01*
X+163619Y-1386810D01*
X+93619Y-1363746D01*
X+23619Y-1352773D01*
X-10000Y-1351500D01*
X-454500Y-1796000D02*
X-453120Y-1761001D01*
X-441921Y-1691001D01*
X-418602Y-1621001D01*
X-380885Y-1551001D01*
X-323619Y-1481003D01*
X-253619Y-1424207D01*
X-183619Y-1386810D01*
X-113619Y-1363746D01*
X-43619Y-1352773D01*
X-10000Y-1351500D01*
X-454500Y-1796000D02*
X-453120Y-1830999D01*
X-441921Y-1900999D01*
X-418602Y-1970999D01*
X-380885Y-2040999D01*
X-323619Y-2110997D01*
X-253619Y-2167793D01*
X-183619Y-2205190D01*
X-113619Y-2228254D01*
X-43619Y-2239227D01*
X-10000Y-2240500D01*
X+434500Y-1796000D02*
X+433120Y-1830999D01*
X+421921Y-1900999D01*
X+398602Y-1970999D01*
X+360885Y-2040999D01*
X+303619Y-2110997D01*
X+233619Y-2167793D01*
X+163619Y-2205190D01*
X+93619Y-2228254D01*
X+23619Y-2239227D01*
X-10000Y-2240500D01*
X-264000Y-1415000D02*
X-327500Y-1351500D01*
X-454500Y-1478500D01*
X-391000Y-1542000D01*
X-137000Y-2311620D02*
X-105250Y-2281140D01*
X-73500Y-2281140D01*
X-41750Y-2311620D01*
X-41750Y-2342100D01*
X-73500Y-2372580D01*
X-105250Y-2372580D01*
X-137000Y-2342100D01*
X-137000Y-2311620D01*
X-73500Y-2342100D02*
X-41750Y-2372580D01*
X+5875Y-2296380D02*
X+21750Y-2281140D01*
X+69375Y-2281140D01*
X+85250Y-2296380D01*
X+85250Y-2311620D01*
X+69375Y-2326860D01*
X+21750Y-2326860D01*
X+5875Y-2342100D01*
X+5875Y-2372580D01*
X+85250Y-2372580D01*
X-515000Y+1208000D02*
X-515000Y+1335000D01*
X+501000Y+1335000D01*
X+501000Y+827000D01*
X-515000Y+827000D01*
X-515000Y+954000D01*
X-388000Y+1081000D02*
X-390436Y+1106876D01*
X-397485Y+1130848D01*
X-408762Y+1152438D01*
X-423878Y+1171170D01*
X-442446Y+1186569D01*
X-464081Y+1198158D01*
X-488394Y+1205460D01*
X-515000Y+1208000D01*
X-388000Y+1081000D02*
X-390436Y+1054394D01*
X-397485Y+1030081D01*
X-408762Y+1008446D01*
X-423878Y+989878D01*
X-442446Y+974762D01*
X-464081Y+963485D01*
X-488394Y+956436D01*
X-515000Y+954000D01*
X-647080Y+954000D02*
X-570880Y+954000D01*
X-555640Y+969875D01*
X-555640Y+1033375D01*
X-570880Y+1049250D01*
X-647080Y+1049250D01*
X-616600Y+1112750D02*
X-647080Y+1144500D01*
X-555640Y+1144500D01*
D25*
X-440000Y+3145000D02*
X-440000Y+3175000D01*
X-580000Y+3145000D02*
X-580000Y+3175000D01*
D24*
X-260480Y+3033000D02*
X-351920Y+3033000D01*
X-351920Y+3112375D01*
X-336680Y+3128250D01*
X-321440Y+3128250D01*
X-306200Y+3112375D01*
X-306200Y+3033000D01*
X-306200Y+3112375D02*
X-290960Y+3128250D01*
X-260480Y+3128250D01*
X-351920Y+3255250D02*
X-351920Y+3175875D01*
X-321440Y+3175875D01*
X-321440Y+3239375D01*
X-306200Y+3255250D01*
X-275720Y+3255250D01*
X-260480Y+3239375D01*
X-260480Y+3191750D01*
X-275720Y+3175875D01*
D25*
X+440000Y+3145000D02*
X+440000Y+3175000D01*
X+300000Y+3145000D02*
X+300000Y+3175000D01*
D24*
X+219520Y+3033000D02*
X+128080Y+3033000D01*
X+128080Y+3112375D01*
X+143320Y+3128250D01*
X+158560Y+3128250D01*
X+173800Y+3112375D01*
X+173800Y+3033000D01*
X+173800Y+3112375D02*
X+189040Y+3128250D01*
X+219520Y+3128250D01*
X+143320Y+3255250D02*
X+128080Y+3239375D01*
X+128080Y+3191750D01*
X+143320Y+3175875D01*
X+204280Y+3175875D01*
X+219520Y+3191750D01*
X+219520Y+3239375D01*
X+204280Y+3255250D01*
X+189040Y+3255250D01*
X+173800Y+3239375D01*
X+173800Y+3175875D01*
X-631580Y+3189700D02*
X-631580Y+3121120D01*
X-753500Y+3189700D02*
X-753500Y+3118580D01*
X-829500Y+3019680D02*
X-920940Y+3019680D01*
X-920940Y+3083180D01*
X-890460Y+3114930D01*
X-859980Y+3114930D01*
X-829500Y+3083180D01*
X-829500Y+3019680D01*
X-905700Y+3162555D02*
X-920940Y+3178430D01*
X-920940Y+3226055D01*
X-905700Y+3241930D01*
X-890460Y+3241930D01*
X-875220Y+3226055D01*
X-875220Y+3178430D01*
X-859980Y+3162555D01*
X-829500Y+3162555D01*
X-829500Y+3241930D01*
X+608420Y+3189700D02*
X+608420Y+3121120D01*
X+486500Y+3189700D02*
X+486500Y+3118580D01*
X+740500Y+3029680D02*
X+649060Y+3029680D01*
X+649060Y+3093180D01*
X+679540Y+3124930D01*
X+710020Y+3124930D01*
X+740500Y+3093180D01*
X+740500Y+3029680D01*
X+664300Y+3172555D02*
X+649060Y+3188430D01*
X+649060Y+3236055D01*
X+664300Y+3251930D01*
X+679540Y+3251930D01*
X+694780Y+3236055D01*
X+710020Y+3251930D01*
X+725260Y+3251930D01*
X+740500Y+3236055D01*
X+740500Y+3188430D01*
X+725260Y+3172555D01*
X+694780Y+3204305D02*
X+694780Y+3236055D01*
X-134620Y-1147080D02*
X+132080Y-1147080D01*
X+132080Y-628920D01*
X-134620Y-628920D01*
X-134620Y-1147080D01*
X-132080Y-1065800D02*
X+129540Y-1065800D01*
X+0Y-1218200D02*
X+0Y-1147080D01*
X+0Y-628920D02*
X+0Y-557800D01*
X-175260Y-1015000D02*
X-266700Y-1015000D01*
X-266700Y-951500D01*
X-236220Y-919750D01*
X-205740Y-919750D01*
X-175260Y-951500D01*
X-175260Y-1015000D01*
X-236220Y-856250D02*
X-266700Y-824500D01*
X-175260Y-824500D01*
X+173000Y-1009520D02*
X+173000Y-918080D01*
X+252375Y-918080D01*
X+268250Y-933320D01*
X+268250Y-948560D01*
X+252375Y-963800D01*
X+173000Y-963800D01*
X+252375Y-963800D02*
X+268250Y-979040D01*
X+268250Y-1009520D01*
X+315875Y-933320D02*
X+331750Y-918080D01*
X+379375Y-918080D01*
X+395250Y-933320D01*
X+395250Y-948560D01*
X+379375Y-963800D01*
X+395250Y-979040D01*
X+395250Y-994280D01*
X+379375Y-1009520D01*
X+331750Y-1009520D01*
X+315875Y-994280D01*
X+347625Y-963800D02*
X+379375Y-963800D01*
X+471920Y-1367000D02*
X+380480Y-1367000D01*
X+380480Y-1287625D01*
X+395720Y-1271750D01*
X+410960Y-1271750D01*
X+426200Y-1287625D01*
X+426200Y-1367000D01*
X+426200Y-1287625D02*
X+441440Y-1271750D01*
X+471920Y-1271750D01*
X+441440Y-1144750D02*
X+441440Y-1240000D01*
X+380480Y-1176500D01*
X+471920Y-1176500D01*
X-297000Y+1680480D02*
X-297000Y+1771920D01*
X-217625Y+1771920D01*
X-201750Y+1756680D01*
X-201750Y+1741440D01*
X-217625Y+1726200D01*
X-297000Y+1726200D01*
X-217625Y+1726200D02*
X-201750Y+1710960D01*
X-201750Y+1680480D01*
X-138250Y+1741440D02*
X-106500Y+1771920D01*
X-106500Y+1680480D01*
X-67000Y+1680480D02*
X-67000Y+1771920D01*
X+12375Y+1771920D01*
X+28250Y+1756680D01*
X+28250Y+1741440D01*
X+12375Y+1726200D01*
X-67000Y+1726200D01*
X+12375Y+1726200D02*
X+28250Y+1710960D01*
X+28250Y+1680480D01*
X+75875Y+1756680D02*
X+91750Y+1771920D01*
X+139375Y+1771920D01*
X+155250Y+1756680D01*
X+155250Y+1741440D01*
X+139375Y+1726200D01*
X+91750Y+1726200D01*
X+75875Y+1710960D01*
X+75875Y+1680480D01*
X+155250Y+1680480D01*
D25*
X+55000Y+2710000D02*
X-55000Y+2710000D01*
X+55000Y+2530000D02*
X-55000Y+2530000D01*
D24*
X-21750Y+2783320D02*
X-37625Y+2768080D01*
X-85250Y+2768080D01*
X-117000Y+2798560D01*
X-117000Y+2829040D01*
X-85250Y+2859520D01*
X-37625Y+2859520D01*
X-21750Y+2844280D01*
X+25875Y+2844280D02*
X+41750Y+2859520D01*
X+89375Y+2859520D01*
X+105250Y+2844280D01*
X+105250Y+2829040D01*
X+89375Y+2813800D01*
X+41750Y+2813800D01*
X+25875Y+2798560D01*
X+25875Y+2768080D01*
X+105250Y+2768080D01*
X-370000Y+2080000D02*
X+360000Y+2080000D01*
X+360000Y+2330000D01*
X-370000Y+2330000D01*
X-370000Y+2080000D01*
X-112000Y+2366311D02*
X-112000Y+2457751D01*
X-32625Y+2457751D01*
X-16750Y+2442511D01*
X-16750Y+2427271D01*
X-32625Y+2412031D01*
X-16750Y+2396791D01*
X-16750Y+2381551D01*
X-32625Y+2366311D01*
X-112000Y+2366311D01*
X-112000Y+2412031D02*
X-32625Y+2412031D01*
X+46750Y+2427271D02*
X+78500Y+2457751D01*
X+78500Y+2366311D01*
D25*
X+40000Y+1070000D02*
X+40000Y+1150000D01*
D24*
X+18250Y+923320D02*
X+2375Y+908080D01*
X-45250Y+908080D01*
X-77000Y+938560D01*
X-77000Y+969040D01*
X-45250Y+999520D01*
X+2375Y+999520D01*
X+18250Y+984280D01*
X+81750Y+969040D02*
X+113500Y+999520D01*
X+113500Y+908080D01*
M02*
