G04 PROTEUS RS274X GERBER FILE*
%FSLAX45Y45*%
%MOMM*%
G01*
%ADD10C,0.762000*%
%ADD11C,0.508000*%
%ADD12C,0.635000*%
%ADD13C,0.304800*%
%ADD14C,2.032000*%
%ADD15R,1.270000X1.270000*%
%ADD16C,1.270000*%
%ADD17R,1.447800X0.939800*%
%ADD18R,1.270000X1.016000*%
%ADD19C,2.286000*%
%ADD70R,0.558800X0.609600*%
%ADD71R,0.609600X0.558800*%
%ADD20R,1.143000X1.803400*%
%ADD21R,2.032000X2.032000*%
%ADD22R,0.939800X0.990600*%
%TD.AperFunction*%
G36*
X+79183Y+4366430D02*
X+156382Y+4360774D01*
X+232579Y+4351418D01*
X+307368Y+4338479D01*
X+380642Y+4322050D01*
X+452349Y+4302218D01*
X+522449Y+4279054D01*
X+590751Y+4252688D01*
X+657308Y+4223153D01*
X+720825Y+4191141D01*
X+845210Y+4116501D01*
X+959979Y+4031308D01*
X+1065573Y+3935573D01*
X+1161308Y+3829979D01*
X+1246504Y+3715206D01*
X+1321134Y+3590835D01*
X+1353157Y+3527297D01*
X+1382680Y+3460768D01*
X+1409067Y+3392412D01*
X+1432213Y+3322367D01*
X+1452050Y+3250642D01*
X+1468478Y+3177371D01*
X+1481419Y+3102574D01*
X+1490773Y+3026385D01*
X+1496430Y+2949183D01*
X+1497055Y+2910738D01*
X+1488401Y+2902084D01*
X+1484853Y+2730115D01*
X+1474647Y+2605343D01*
X+1458028Y+2485425D01*
X+1435399Y+2371341D01*
X+1407145Y+2263735D01*
X+1373703Y+2163316D01*
X+1335510Y+2070706D01*
X+1293088Y+1986603D01*
X+1246999Y+1911637D01*
X+1197873Y+1846383D01*
X+1153396Y+1798800D01*
X+1103369Y+1756804D01*
X+1049348Y+1722826D01*
X+994724Y+1699205D01*
X+940346Y+1685864D01*
X+837916Y+1681599D01*
X+768401Y+1612084D01*
X+768401Y+1527916D01*
X+827916Y+1468401D01*
X+942084Y+1468401D01*
X+1132590Y+1474104D01*
X+1135261Y+1474310D01*
X+1351194Y+1491014D01*
X+1555800Y+1518673D01*
X+1558917Y+1519294D01*
X+1746451Y+1556676D01*
X+1749804Y+1557586D01*
X+1923107Y+1604638D01*
X+2085731Y+1662205D01*
X+2089571Y+1663933D01*
X+2234270Y+1729056D01*
X+2368597Y+1804887D01*
X+2488487Y+1889383D01*
X+2526703Y+1923116D01*
X+2593651Y+1982212D01*
X+2598618Y+1987770D01*
X+2603651Y+1992212D01*
X+2607665Y+1996703D01*
X+2692607Y+2091745D01*
X+2695451Y+2095603D01*
X+2732749Y+2146204D01*
X+2767977Y+2201127D01*
X+2799198Y+2257734D01*
X+2826334Y+2315879D01*
X+2849346Y+2375453D01*
X+2868190Y+2436309D01*
X+2882846Y+2498325D01*
X+2883408Y+2501710D01*
X+2893580Y+2563022D01*
X+2901599Y+2647916D01*
X+2904493Y+2730278D01*
X+2911514Y+2766851D01*
X+2923367Y+2803303D01*
X+2939773Y+2838566D01*
X+2960687Y+2872547D01*
X+2986075Y+2905090D01*
X+3007810Y+2927615D01*
X+3039951Y+2954884D01*
X+3078147Y+2981522D01*
X+3120218Y+3005545D01*
X+3165979Y+3026668D01*
X+3215103Y+3044558D01*
X+3267357Y+3058944D01*
X+3322453Y+3069544D01*
X+3379479Y+3076022D01*
X+3398481Y+3076463D01*
X+3437839Y+3077375D01*
X+3488890Y+3076063D01*
X+3534421Y+3069910D01*
X+3578935Y+3059704D01*
X+3621654Y+3045701D01*
X+3662589Y+3028014D01*
X+3701692Y+3006749D01*
X+3738936Y+2981978D01*
X+3774225Y+2953788D01*
X+3807481Y+2922239D01*
X+3838568Y+2887423D01*
X+3867361Y+2849414D01*
X+3893698Y+2808328D01*
X+3917434Y+2764257D01*
X+3938401Y+2717324D01*
X+3955702Y+2669674D01*
X+3966709Y+2607480D01*
X+3965318Y+2537968D01*
X+3956419Y+2428622D01*
X+3941796Y+2321093D01*
X+3921669Y+2215741D01*
X+3896244Y+2112656D01*
X+3865694Y+2011848D01*
X+3830229Y+1913442D01*
X+3790020Y+1817461D01*
X+3745290Y+1724061D01*
X+3696181Y+1633224D01*
X+3642910Y+1545091D01*
X+3585686Y+1459768D01*
X+3524679Y+1377311D01*
X+3460098Y+1297828D01*
X+3392123Y+1221392D01*
X+3320982Y+1148131D01*
X+3246863Y+1078119D01*
X+3169975Y+1011457D01*
X+3090530Y+948245D01*
X+3008718Y+888562D01*
X+2924769Y+832516D01*
X+2838885Y+780194D01*
X+2751287Y+731690D01*
X+2662199Y+687102D01*
X+2571803Y+646501D01*
X+2480368Y+609996D01*
X+2388033Y+577642D01*
X+2295112Y+549556D01*
X+2201721Y+525786D01*
X+2108184Y+506438D01*
X+2015575Y+491720D01*
X+1887916Y+481599D01*
X+1873027Y+466710D01*
X+1871766Y+466371D01*
X+1831511Y+448321D01*
X+1792123Y+423548D01*
X+1785592Y+417655D01*
X+1728740Y+366353D01*
X+1723322Y+359431D01*
X+1671281Y+292939D01*
X+1668019Y+287490D01*
X+1619869Y+207045D01*
X+1573151Y+109367D01*
X+1530522Y+660D01*
X+1529598Y-2172D01*
X+1491700Y-118361D01*
X+1456673Y-246702D01*
X+1456192Y-248811D01*
X+1425486Y-383452D01*
X+1422288Y-400387D01*
X+1398284Y-527493D01*
X+1375220Y-677818D01*
X+1356501Y-833186D01*
X+1356361Y-834756D01*
X+1342309Y-992600D01*
X+1332868Y-1154879D01*
X+1330285Y-1226032D01*
X+1328401Y-1227916D01*
X+1328401Y-1362084D01*
X+1329310Y-1362993D01*
X+1330065Y-1405269D01*
X+1330236Y-1407926D01*
X+1338808Y-1541031D01*
X+1342011Y-1568731D01*
X+1354268Y-1674748D01*
X+1376133Y-1805492D01*
X+1404108Y-1932298D01*
X+1404834Y-1934917D01*
X+1437932Y-2054237D01*
X+1438861Y-2056973D01*
X+1450794Y-2092105D01*
X+1477375Y-2170367D01*
X+1478569Y-2173278D01*
X+1486154Y-2191767D01*
X+1520926Y-2276529D01*
X+1520927Y-2276528D01*
X+1522263Y-2279786D01*
X+1523811Y-2282925D01*
X+1572479Y-2381558D01*
X+1574533Y-2385006D01*
X+1628041Y-2474808D01*
X+1689121Y-2558606D01*
X+1756081Y-2631877D01*
X+1829501Y-2693249D01*
X+1841131Y-2700113D01*
X+1909939Y-2740720D01*
X+1994540Y-2770484D01*
X+2043117Y-2779027D01*
X+2047916Y-2781599D01*
X+2132084Y-2781599D01*
X+2152891Y-2760792D01*
X+2155274Y-2760113D01*
X+2267084Y-2745677D01*
X+2445402Y-2735413D01*
X+2650054Y-2732486D01*
X+2731011Y-2735731D01*
X+2788000Y-2746550D01*
X+2843896Y-2764525D01*
X+2897682Y-2789274D01*
X+2949208Y-2820639D01*
X+2998239Y-2858467D01*
X+3044421Y-2902543D01*
X+3087403Y-2952645D01*
X+3126781Y-3008489D01*
X+3162136Y-3069726D01*
X+3193089Y-3136044D01*
X+3219229Y-3207033D01*
X+3240182Y-3282306D01*
X+3255588Y-3361500D01*
X+3265028Y-3443687D01*
X+3267131Y-3523728D01*
X+3264314Y-3603129D01*
X+3253234Y-3672119D01*
X+3235018Y-3739092D01*
X+3210126Y-3803049D01*
X+3178847Y-3863799D01*
X+3141485Y-3921052D01*
X+3098314Y-3974531D01*
X+3049654Y-4023884D01*
X+2995779Y-4068799D01*
X+2937031Y-4108898D01*
X+2873708Y-4143839D01*
X+2806167Y-4173244D01*
X+2734690Y-4196766D01*
X+2659627Y-4214030D01*
X+2581898Y-4224585D01*
X+2457916Y-4228401D01*
X+2342084Y-4228401D01*
X+2101082Y-4221391D01*
X+1909339Y-4200928D01*
X+1724606Y-4167267D01*
X+1547806Y-4120853D01*
X+1378495Y-4061725D01*
X+1298673Y-4028232D01*
X+1220271Y-3991410D01*
X+1144252Y-3951682D01*
X+1070736Y-3909120D01*
X+999776Y-3863762D01*
X+931460Y-3815670D01*
X+865839Y-3764875D01*
X+802964Y-3711411D01*
X+742929Y-3655339D01*
X+685772Y-3596677D01*
X+631579Y-3535479D01*
X+580411Y-3471776D01*
X+532323Y-3405589D01*
X+487400Y-3336969D01*
X+445689Y-3265914D01*
X+407275Y-3192471D01*
X+372234Y-3116676D01*
X+340615Y-3038492D01*
X+312530Y-2958025D01*
X+288039Y-2875254D01*
X+267522Y-2791409D01*
X+251599Y-2677916D01*
X+242594Y-2666338D01*
X+215932Y-2625241D01*
X+183879Y-2597272D01*
X+147322Y-2576493D01*
X+78993Y-2555203D01*
X+42084Y-2548401D01*
X-42084Y-2548401D01*
X-78993Y-2555203D01*
X-147322Y-2576493D01*
X-183879Y-2597272D01*
X-215932Y-2625241D01*
X-242594Y-2666338D01*
X-251599Y-2677916D01*
X-267522Y-2791409D01*
X-288039Y-2875254D01*
X-312530Y-2958025D01*
X-340615Y-3038492D01*
X-372234Y-3116676D01*
X-407275Y-3192471D01*
X-445689Y-3265914D01*
X-487400Y-3336969D01*
X-532323Y-3405589D01*
X-580411Y-3471776D01*
X-631579Y-3535479D01*
X-685772Y-3596677D01*
X-742929Y-3655339D01*
X-802964Y-3711411D01*
X-865839Y-3764875D01*
X-931460Y-3815670D01*
X-999776Y-3863762D01*
X-1070736Y-3909120D01*
X-1144252Y-3951682D01*
X-1220271Y-3991410D01*
X-1298673Y-4028232D01*
X-1378495Y-4061725D01*
X-1547806Y-4120853D01*
X-1724606Y-4167267D01*
X-1909339Y-4200928D01*
X-2101082Y-4221391D01*
X-2342084Y-4228401D01*
X-2457916Y-4228401D01*
X-2581898Y-4224585D01*
X-2659627Y-4214030D01*
X-2734690Y-4196766D01*
X-2806167Y-4173244D01*
X-2873708Y-4143839D01*
X-2937031Y-4108898D01*
X-2995779Y-4068799D01*
X-3049654Y-4023884D01*
X-3098314Y-3974531D01*
X-3141485Y-3921052D01*
X-3178847Y-3863799D01*
X-3210126Y-3803049D01*
X-3235018Y-3739092D01*
X-3253234Y-3672119D01*
X-3264314Y-3603129D01*
X-3267131Y-3523728D01*
X-3265028Y-3443687D01*
X-3255588Y-3361500D01*
X-3240182Y-3282306D01*
X-3219229Y-3207033D01*
X-3193089Y-3136044D01*
X-3162136Y-3069726D01*
X-3126781Y-3008489D01*
X-3087403Y-2952645D01*
X-3044421Y-2902543D01*
X-2998239Y-2858467D01*
X-2949208Y-2820639D01*
X-2897682Y-2789274D01*
X-2843896Y-2764525D01*
X-2788000Y-2746550D01*
X-2731011Y-2735731D01*
X-2650054Y-2732486D01*
X-2445402Y-2735413D01*
X-2267084Y-2745677D01*
X-2155274Y-2760113D01*
X-2152891Y-2760792D01*
X-2132084Y-2781599D01*
X-2047916Y-2781599D01*
X-2043117Y-2779027D01*
X-1994540Y-2770484D01*
X-1909939Y-2740720D01*
X-1829501Y-2693249D01*
X-1756081Y-2631877D01*
X-1689121Y-2558606D01*
X-1628041Y-2474808D01*
X-1572479Y-2381558D01*
X-1522263Y-2279786D01*
X-1477375Y-2170367D01*
X-1437932Y-2054237D01*
X-1404108Y-1932298D01*
X-1376133Y-1805492D01*
X-1354268Y-1674748D01*
X-1338808Y-1541031D01*
X-1330065Y-1405269D01*
X-1329310Y-1362993D01*
X-1328401Y-1362084D01*
X-1328401Y-1227916D01*
X-1331026Y-1225291D01*
X-1334676Y-1152118D01*
X-1345675Y-988480D01*
X-1361215Y-827844D01*
X-1381090Y-671415D01*
X-1405125Y-520229D01*
X-1433125Y-375511D01*
X-1464971Y-238178D01*
X-1500527Y-109359D01*
X-1539748Y+9998D01*
X-1582682Y+118970D01*
X-1629605Y+216812D01*
X-1681145Y+302810D01*
X-1738681Y+376292D01*
X-1802095Y+433521D01*
X-1841491Y+458306D01*
X-1881762Y+476368D01*
X-1883024Y+476707D01*
X-1897916Y+491599D01*
X-2025575Y+501720D01*
X-2118184Y+516438D01*
X-2211721Y+535786D01*
X-2305112Y+559556D01*
X-2398033Y+587642D01*
X-2490368Y+619996D01*
X-2581803Y+656501D01*
X-2672199Y+697102D01*
X-2761287Y+741690D01*
X-2848885Y+790194D01*
X-2934769Y+842516D01*
X-3018718Y+898562D01*
X-3100530Y+958245D01*
X-3179975Y+1021457D01*
X-3256863Y+1088119D01*
X-3330982Y+1158131D01*
X-3402123Y+1231392D01*
X-3470098Y+1307828D01*
X-3534679Y+1387311D01*
X-3595686Y+1469768D01*
X-3652910Y+1555091D01*
X-3706181Y+1643224D01*
X-3755290Y+1734061D01*
X-3800020Y+1827461D01*
X-3840229Y+1923442D01*
X-3875694Y+2021848D01*
X-3906244Y+2122656D01*
X-3931669Y+2225741D01*
X-3951796Y+2331093D01*
X-3966419Y+2438622D01*
X-3975318Y+2547968D01*
X-3976709Y+2617480D01*
X-3965702Y+2679674D01*
X-3948401Y+2727324D01*
X-3927434Y+2774257D01*
X-3903698Y+2818328D01*
X-3877361Y+2859414D01*
X-3848568Y+2897423D01*
X-3817481Y+2932239D01*
X-3784225Y+2963788D01*
X-3748936Y+2991978D01*
X-3711692Y+3016749D01*
X-3672589Y+3038014D01*
X-3631654Y+3055701D01*
X-3588935Y+3069704D01*
X-3544421Y+3079910D01*
X-3498890Y+3086063D01*
X-3447839Y+3087375D01*
X-3389479Y+3086022D01*
X-3332453Y+3079544D01*
X-3277357Y+3068944D01*
X-3225103Y+3054558D01*
X-3175979Y+3036668D01*
X-3130218Y+3015545D01*
X-3088147Y+2991522D01*
X-3049951Y+2964884D01*
X-3015878Y+2935975D01*
X-2986075Y+2905090D01*
X-2960687Y+2872547D01*
X-2939773Y+2838566D01*
X-2923367Y+2803303D01*
X-2911514Y+2766851D01*
X-2904493Y+2730278D01*
X-2901599Y+2647916D01*
X-2893580Y+2563022D01*
X-2882846Y+2498325D01*
X-2868190Y+2436309D01*
X-2849346Y+2375453D01*
X-2826334Y+2315879D01*
X-2799198Y+2257734D01*
X-2767977Y+2201127D01*
X-2732749Y+2146204D01*
X-2692607Y+2091745D01*
X-2603651Y+1992212D01*
X-2498487Y+1899383D01*
X-2378597Y+1814887D01*
X-2244270Y+1739056D01*
X-2095731Y+1672205D01*
X-1933107Y+1614638D01*
X-1756451Y+1566676D01*
X-1565800Y+1528673D01*
X-1361194Y+1501014D01*
X-1142590Y+1484104D01*
X-952084Y+1478401D01*
X-837916Y+1478401D01*
X-778401Y+1537916D01*
X-778401Y+1622084D01*
X-837916Y+1681599D01*
X-940346Y+1685864D01*
X-994724Y+1699205D01*
X-1049348Y+1722826D01*
X-1103369Y+1756804D01*
X-1156428Y+1801345D01*
X-1207873Y+1856383D01*
X-1256999Y+1921637D01*
X-1303088Y+1996603D01*
X-1345510Y+2080706D01*
X-1383703Y+2173316D01*
X-1417145Y+2273735D01*
X-1445399Y+2381341D01*
X-1468028Y+2495425D01*
X-1484647Y+2615343D01*
X-1494853Y+2740115D01*
X-1497636Y+2874989D01*
X-1496430Y+2949183D01*
X-1490773Y+3026385D01*
X-1481419Y+3102574D01*
X-1468478Y+3177371D01*
X-1452050Y+3250642D01*
X-1432213Y+3322367D01*
X-1409067Y+3392412D01*
X-1382680Y+3460768D01*
X-1353157Y+3527297D01*
X-1321134Y+3590835D01*
X-1246504Y+3715206D01*
X-1161308Y+3829979D01*
X-1065573Y+3935573D01*
X-959979Y+4031308D01*
X-845210Y+4116501D01*
X-720825Y+4191141D01*
X-657308Y+4223153D01*
X-590751Y+4252688D01*
X-522449Y+4279054D01*
X-452349Y+4302218D01*
X-380642Y+4322050D01*
X-307368Y+4338479D01*
X-232579Y+4351418D01*
X-156382Y+4360774D01*
X-79183Y+4366430D01*
X+0Y+4367717D01*
X+79183Y+4366430D01*
G37*
%LPC*%
G36*
X+723538Y+3483953D02*
X+811848Y+3395643D01*
X+811848Y+3128654D01*
X+704939Y+3021745D01*
X+704939Y+2907761D01*
X+679539Y+2907761D01*
X+679539Y-1543655D01*
X+437039Y-1786155D01*
X+437039Y-1875959D01*
X+323959Y-1989039D01*
X+183039Y-1989039D01*
X+183039Y-2129959D01*
X+69959Y-2243039D01*
X-89959Y-2243039D01*
X-203039Y-2129959D01*
X-203039Y-1989039D01*
X-343959Y-1989039D01*
X-457039Y-1875959D01*
X-457039Y-1716041D01*
X-343959Y-1602961D01*
X-184041Y-1602961D01*
X-96118Y-1690884D01*
X-6973Y-1601739D01*
X-85220Y-1601739D01*
X-205739Y-1481220D01*
X-205739Y-1310780D01*
X-85220Y-1190261D01*
X+34505Y-1190261D01*
X+130621Y-1094145D01*
X+130621Y-918081D01*
X+233161Y-918081D01*
X+233161Y-257039D01*
X+174041Y-257039D01*
X+60961Y-143959D01*
X+60961Y-3039D01*
X-60961Y-3039D01*
X-60961Y-143959D01*
X-174041Y-257039D01*
X-333959Y-257039D01*
X-447039Y-143959D01*
X-447039Y+15959D01*
X-333959Y+129039D01*
X-193039Y+129039D01*
X-193039Y+269959D01*
X-79959Y+383039D01*
X+79959Y+383039D01*
X+193039Y+269959D01*
X+193039Y+129039D01*
X+333959Y+129039D01*
X+420461Y+42537D01*
X+420461Y+545061D01*
X+309822Y+545061D01*
X+247000Y+607883D01*
X+184178Y+545061D01*
X+55822Y+545061D01*
X-7000Y+607883D01*
X-69822Y+545061D01*
X-198178Y+545061D01*
X-233061Y+579944D01*
X-233061Y+545061D01*
X-542939Y+545061D01*
X-542939Y+854939D01*
X-233061Y+854939D01*
X-233061Y+820056D01*
X-198178Y+854939D01*
X-144295Y+854939D01*
X-30203Y+969031D01*
X-178429Y+969031D01*
X-178429Y+1250969D01*
X+3161Y+1250969D01*
X+3161Y+1359722D01*
X-7000Y+1369883D01*
X-69822Y+1307061D01*
X-198178Y+1307061D01*
X-261000Y+1369883D01*
X-323822Y+1307061D01*
X-452178Y+1307061D01*
X-542939Y+1397822D01*
X-542939Y+1526178D01*
X-452178Y+1616939D01*
X-418295Y+1616939D01*
X-339379Y+1695855D01*
X-339379Y+1771919D01*
X-29559Y+1771919D01*
X-29559Y+2438391D01*
X-298589Y+2438391D01*
X-298589Y+2801609D01*
X-1411Y+2801609D01*
X-1411Y+2633823D01*
X+1411Y+2636645D01*
X+1411Y+2801609D01*
X+246811Y+2801609D01*
X+246811Y+2921571D01*
X+206171Y+2921571D01*
X+206171Y+2930462D01*
X-346171Y+2930461D01*
X-346171Y+2921571D01*
X-535061Y+2921571D01*
X-535061Y+2907761D01*
X-844939Y+2907761D01*
X-844939Y+3021745D01*
X-954680Y+3131486D01*
X-954680Y+3388447D01*
X-821232Y+3521895D01*
X+685596Y+3521895D01*
X+723538Y+3483953D01*
G37*
G36*
X+85220Y-585739D02*
X-85220Y-585739D01*
X-205739Y-465220D01*
X-205739Y-294780D01*
X-85220Y-174261D01*
X+85220Y-174261D01*
X+205739Y-294780D01*
X+205739Y-465220D01*
X+85220Y-585739D01*
G37*
G36*
X-443039Y+2006961D02*
X-443039Y+2393039D01*
X-56961Y+2393039D01*
X-56961Y+2006961D01*
X-443039Y+2006961D01*
G37*
%LPD*%
D10*
X-510000Y+3060000D02*
X+370672Y+3060000D01*
X+376502Y+3054170D01*
X+370000Y+3060000D01*
X+370000Y+3260000D02*
X+546640Y+3260000D01*
X+550000Y+3263360D01*
X-510000Y+3260000D02*
X-686640Y+3260000D01*
X-690000Y+3263360D01*
X-690000Y+3050000D02*
X-825141Y+3185141D01*
X-825141Y+3334792D01*
X-767577Y+3392356D01*
X+631941Y+3392356D01*
X+682309Y+3341988D01*
X+682309Y+3182309D01*
X+550000Y+3050000D01*
X+550000Y-1490000D01*
X+244000Y-1796000D01*
D11*
X+350000Y-1190000D02*
X+350000Y-1040000D01*
X+350000Y-160000D01*
X+254000Y-64000D01*
X-10000Y-2050000D02*
X-10000Y-1770000D01*
X+350000Y-1410000D01*
X+350000Y-1290000D01*
X+250000Y-1040000D02*
X+250000Y-1140000D01*
X-3738Y-1393738D01*
X-3738Y-1401992D01*
X+0Y-1396000D01*
D12*
X+240000Y+2204000D02*
X+370000Y+2334000D01*
X+370000Y+3060000D01*
D11*
X-134000Y+1462000D02*
X-120000Y+1476000D01*
X-120000Y+1650000D01*
X+10000Y+1650000D01*
X+374000Y+1462000D02*
X+374000Y+1516197D01*
X+87280Y+1802917D01*
X+87280Y+2557280D01*
X+150000Y+2620000D01*
X+120000Y+1110000D02*
X+120000Y+1462000D01*
X+110000Y+1472000D01*
X+120000Y+1462000D01*
X+110000Y+1472000D02*
X+110000Y+1650000D01*
X-134000Y+700000D02*
X+120000Y+954000D01*
X+120000Y+1060470D01*
X+120000Y+1110000D01*
X-388000Y+1462000D02*
X-388000Y+1482000D01*
X-220000Y+1650000D01*
D10*
X+79183Y+4366430D02*
X+156382Y+4360774D01*
X+232579Y+4351418D01*
X+307368Y+4338479D01*
X+380642Y+4322050D01*
X+452349Y+4302218D01*
X+522449Y+4279054D01*
X+590751Y+4252688D01*
X+657308Y+4223153D01*
X+720825Y+4191141D01*
X+845210Y+4116501D01*
X+959979Y+4031308D01*
X+1065573Y+3935573D01*
X+1161308Y+3829979D01*
X+1246504Y+3715206D01*
X+1321134Y+3590835D01*
X+1353157Y+3527297D01*
X+1382680Y+3460768D01*
X+1409067Y+3392412D01*
X+1432213Y+3322367D01*
X+1452050Y+3250642D01*
X+1468478Y+3177371D01*
X+1481419Y+3102574D01*
X+1490773Y+3026385D01*
X+1496430Y+2949183D01*
X+1497055Y+2910738D01*
X+1488401Y+2902084D01*
X+1484853Y+2730115D01*
X+1474647Y+2605343D01*
X+1458028Y+2485425D01*
X+1435399Y+2371341D01*
X+1407145Y+2263735D01*
X+1373703Y+2163316D01*
X+1335510Y+2070706D01*
X+1293088Y+1986603D01*
X+1246999Y+1911637D01*
X+1197873Y+1846383D01*
X+1153396Y+1798800D01*
X+1103369Y+1756804D01*
X+1049348Y+1722826D01*
X+994724Y+1699205D01*
X+940346Y+1685864D01*
X+837916Y+1681599D01*
X+768401Y+1612084D01*
X+768401Y+1527916D01*
X+827916Y+1468401D01*
X+942084Y+1468401D01*
X+1132590Y+1474104D01*
X+1135261Y+1474310D01*
X+1351194Y+1491014D01*
X+1555800Y+1518673D01*
X+1558917Y+1519294D01*
X+1746451Y+1556676D01*
X+1749804Y+1557586D01*
X+1923107Y+1604638D01*
X+2085731Y+1662205D01*
X+2089571Y+1663933D01*
X+2234270Y+1729056D01*
X+2368597Y+1804887D01*
X+2488487Y+1889383D01*
X+2526703Y+1923116D01*
X+2593651Y+1982212D01*
X+2598618Y+1987770D01*
X+2603651Y+1992212D01*
X+2607665Y+1996703D01*
X+2692607Y+2091745D01*
X+2695451Y+2095603D01*
X+2732749Y+2146204D01*
X+2767977Y+2201127D01*
X+2799198Y+2257734D01*
X+2826334Y+2315879D01*
X+2849346Y+2375453D01*
X+2868190Y+2436309D01*
X+2882846Y+2498325D01*
X+2883408Y+2501710D01*
X+2893580Y+2563022D01*
X+2901599Y+2647916D01*
X+2904493Y+2730278D01*
X+2911514Y+2766851D01*
X+2923367Y+2803303D01*
X+2939773Y+2838566D01*
X+2960687Y+2872547D01*
X+2986075Y+2905090D01*
X+3007810Y+2927615D01*
X+3039951Y+2954884D01*
X+3078147Y+2981522D01*
X+3120218Y+3005545D01*
X+3165979Y+3026668D01*
X+3215103Y+3044558D01*
X+3267357Y+3058944D01*
X+3322453Y+3069544D01*
X+3379479Y+3076022D01*
X+3398481Y+3076463D01*
X+3437839Y+3077375D01*
X+3488890Y+3076063D01*
X+3534421Y+3069910D01*
X+3578935Y+3059704D01*
X+3621654Y+3045701D01*
X+3662589Y+3028014D01*
X+3701692Y+3006749D01*
X+3738936Y+2981978D01*
X+3774225Y+2953788D01*
X+3807481Y+2922239D01*
X+3838568Y+2887423D01*
X+3867361Y+2849414D01*
X+3893698Y+2808328D01*
X+3917434Y+2764257D01*
X+3938401Y+2717324D01*
X+3955702Y+2669674D01*
X+3966709Y+2607480D01*
X+3965318Y+2537968D01*
X+3956419Y+2428622D01*
X+3941796Y+2321093D01*
X+3921669Y+2215741D01*
X+3896244Y+2112656D01*
X+3865694Y+2011848D01*
X+3830229Y+1913442D01*
X+3790020Y+1817461D01*
X+3745290Y+1724061D01*
X+3696181Y+1633224D01*
X+3642910Y+1545091D01*
X+3585686Y+1459768D01*
X+3524679Y+1377311D01*
X+3460098Y+1297828D01*
X+3392123Y+1221392D01*
X+3320982Y+1148131D01*
X+3246863Y+1078119D01*
X+3169975Y+1011457D01*
X+3090530Y+948245D01*
X+3008718Y+888562D01*
X+2924769Y+832516D01*
X+2838885Y+780194D01*
X+2751287Y+731690D01*
X+2662199Y+687102D01*
X+2571803Y+646501D01*
X+2480368Y+609996D01*
X+2388033Y+577642D01*
X+2295112Y+549556D01*
X+2201721Y+525786D01*
X+2108184Y+506438D01*
X+2015575Y+491720D01*
X+1887916Y+481599D01*
X+1873027Y+466710D01*
X+1871766Y+466371D01*
X+1831511Y+448321D01*
X+1792123Y+423548D01*
X+1785592Y+417655D01*
X+1728740Y+366353D01*
X+1723322Y+359431D01*
X+1671281Y+292939D01*
X+1668019Y+287490D01*
X+1619869Y+207045D01*
X+1573151Y+109367D01*
X+1530522Y+660D01*
X+1529598Y-2172D01*
X+1491700Y-118361D01*
X+1456673Y-246702D01*
X+1456192Y-248811D01*
X+1425486Y-383452D01*
X+1422288Y-400387D01*
X+1398284Y-527493D01*
X+1375220Y-677818D01*
X+1356501Y-833186D01*
X+1356361Y-834756D01*
X+1342309Y-992600D01*
X+1332868Y-1154879D01*
X+1330285Y-1226032D01*
X+1328401Y-1227916D01*
X+1328401Y-1362084D01*
X+1329310Y-1362993D01*
X+1330065Y-1405269D01*
X+1330236Y-1407926D01*
X+1338808Y-1541031D01*
X+1342011Y-1568731D01*
X+1354268Y-1674748D01*
X+1376133Y-1805492D01*
X+1404108Y-1932298D01*
X+1404834Y-1934917D01*
X+1437932Y-2054237D01*
X+1438861Y-2056973D01*
X+1450794Y-2092105D01*
X+1477375Y-2170367D01*
X+1478569Y-2173278D01*
X+1486154Y-2191767D01*
X+1520926Y-2276529D01*
X+1520927Y-2276528D01*
X+1522263Y-2279786D01*
X+1523811Y-2282925D01*
X+1572479Y-2381558D01*
X+1574533Y-2385006D01*
X+1628041Y-2474808D01*
X+1689121Y-2558606D01*
X+1756081Y-2631877D01*
X+1829501Y-2693249D01*
X+1841131Y-2700113D01*
X+1909939Y-2740720D01*
X+1994540Y-2770484D01*
X+2043117Y-2779027D01*
X+2047916Y-2781599D01*
X+2132084Y-2781599D01*
X+2152891Y-2760792D01*
X+2155274Y-2760113D01*
X+2267084Y-2745677D01*
X+2445402Y-2735413D01*
X+2650054Y-2732486D01*
X+2731011Y-2735731D01*
X+2788000Y-2746550D01*
X+2843896Y-2764525D01*
X+2897682Y-2789274D01*
X+2949208Y-2820639D01*
X+2998239Y-2858467D01*
X+3044421Y-2902543D01*
X+3087403Y-2952645D01*
X+3126781Y-3008489D01*
X+3162136Y-3069726D01*
X+3193089Y-3136044D01*
X+3219229Y-3207033D01*
X+3240182Y-3282306D01*
X+3255588Y-3361500D01*
X+3265028Y-3443687D01*
X+3267131Y-3523728D01*
X+3264314Y-3603129D01*
X+3253234Y-3672119D01*
X+3235018Y-3739092D01*
X+3210126Y-3803049D01*
X+3178847Y-3863799D01*
X+3141485Y-3921052D01*
X+3098314Y-3974531D01*
X+3049654Y-4023884D01*
X+2995779Y-4068799D01*
X+2937031Y-4108898D01*
X+2873708Y-4143839D01*
X+2806167Y-4173244D01*
X+2734690Y-4196766D01*
X+2659627Y-4214030D01*
X+2581898Y-4224585D01*
X+2457916Y-4228401D01*
X+2342084Y-4228401D01*
X+2101082Y-4221391D01*
X+1909339Y-4200928D01*
X+1724606Y-4167267D01*
X+1547806Y-4120853D01*
X+1378495Y-4061725D01*
X+1298673Y-4028232D01*
X+1220271Y-3991410D01*
X+1144252Y-3951682D01*
X+1070736Y-3909120D01*
X+999776Y-3863762D01*
X+931460Y-3815670D01*
X+865839Y-3764875D01*
X+802964Y-3711411D01*
X+742929Y-3655339D01*
X+685772Y-3596677D01*
X+631579Y-3535479D01*
X+580411Y-3471776D01*
X+532323Y-3405589D01*
X+487400Y-3336969D01*
X+445689Y-3265914D01*
X+407275Y-3192471D01*
X+372234Y-3116676D01*
X+340615Y-3038492D01*
X+312530Y-2958025D01*
X+288039Y-2875254D01*
X+267522Y-2791409D01*
X+251599Y-2677916D01*
X+242594Y-2666338D01*
X+215932Y-2625241D01*
X+183879Y-2597272D01*
X+147322Y-2576493D01*
X+78993Y-2555203D01*
X+42084Y-2548401D01*
X-42084Y-2548401D01*
X-78993Y-2555203D01*
X-147322Y-2576493D01*
X-183879Y-2597272D01*
X-215932Y-2625241D01*
X-242594Y-2666338D01*
X-251599Y-2677916D01*
X-267522Y-2791409D01*
X-288039Y-2875254D01*
X-312530Y-2958025D01*
X-340615Y-3038492D01*
X-372234Y-3116676D01*
X-407275Y-3192471D01*
X-445689Y-3265914D01*
X-487400Y-3336969D01*
X-532323Y-3405589D01*
X-580411Y-3471776D01*
X-631579Y-3535479D01*
X-685772Y-3596677D01*
X-742929Y-3655339D01*
X-802964Y-3711411D01*
X-865839Y-3764875D01*
X-931460Y-3815670D01*
X-999776Y-3863762D01*
X-1070736Y-3909120D01*
X-1144252Y-3951682D01*
X-1220271Y-3991410D01*
X-1298673Y-4028232D01*
X-1378495Y-4061725D01*
X-1547806Y-4120853D01*
X-1724606Y-4167267D01*
X-1909339Y-4200928D01*
X-2101082Y-4221391D01*
X-2342084Y-4228401D01*
X-2457916Y-4228401D01*
X-2581898Y-4224585D01*
X-2659627Y-4214030D01*
X-2734690Y-4196766D01*
X-2806167Y-4173244D01*
X-2873708Y-4143839D01*
X-2937031Y-4108898D01*
X-2995779Y-4068799D01*
X-3049654Y-4023884D01*
X-3098314Y-3974531D01*
X-3141485Y-3921052D01*
X-3178847Y-3863799D01*
X-3210126Y-3803049D01*
X-3235018Y-3739092D01*
X-3253234Y-3672119D01*
X-3264314Y-3603129D01*
X-3267131Y-3523728D01*
X-3265028Y-3443687D01*
X-3255588Y-3361500D01*
X-3240182Y-3282306D01*
X-3219229Y-3207033D01*
X-3193089Y-3136044D01*
X-3162136Y-3069726D01*
X-3126781Y-3008489D01*
X-3087403Y-2952645D01*
X-3044421Y-2902543D01*
X-2998239Y-2858467D01*
X-2949208Y-2820639D01*
X-2897682Y-2789274D01*
X-2843896Y-2764525D01*
X-2788000Y-2746550D01*
X-2731011Y-2735731D01*
X-2650054Y-2732486D01*
X-2445402Y-2735413D01*
X-2267084Y-2745677D01*
X-2155274Y-2760113D01*
X-2152891Y-2760792D01*
X-2132084Y-2781599D01*
X-2047916Y-2781599D01*
X-2043117Y-2779027D01*
X-1994540Y-2770484D01*
X-1909939Y-2740720D01*
X-1829501Y-2693249D01*
X-1756081Y-2631877D01*
X-1689121Y-2558606D01*
X-1628041Y-2474808D01*
X-1572479Y-2381558D01*
X-1522263Y-2279786D01*
X-1477375Y-2170367D01*
X-1437932Y-2054237D01*
X-1404108Y-1932298D01*
X-1376133Y-1805492D01*
X-1354268Y-1674748D01*
X-1338808Y-1541031D01*
X-1330065Y-1405269D01*
X-1329310Y-1362993D01*
X-1328401Y-1362084D01*
X-1328401Y-1227916D01*
X-1331026Y-1225291D01*
X-1334676Y-1152118D01*
X-1345675Y-988480D01*
X-1361215Y-827844D01*
X-1381090Y-671415D01*
X-1405125Y-520229D01*
X-1433125Y-375511D01*
X-1464971Y-238178D01*
X-1500527Y-109359D01*
X-1539748Y+9998D01*
X-1582682Y+118970D01*
X-1629605Y+216812D01*
X-1681145Y+302810D01*
X-1738681Y+376292D01*
X-1802095Y+433521D01*
X-1841491Y+458306D01*
X-1881762Y+476368D01*
X-1883024Y+476707D01*
X-1897916Y+491599D01*
X-2025575Y+501720D01*
X-2118184Y+516438D01*
X-2211721Y+535786D01*
X-2305112Y+559556D01*
X-2398033Y+587642D01*
X-2490368Y+619996D01*
X-2581803Y+656501D01*
X-2672199Y+697102D01*
X-2761287Y+741690D01*
X-2848885Y+790194D01*
X-2934769Y+842516D01*
X-3018718Y+898562D01*
X-3100530Y+958245D01*
X-3179975Y+1021457D01*
X-3256863Y+1088119D01*
X-3330982Y+1158131D01*
X-3402123Y+1231392D01*
X-3470098Y+1307828D01*
X-3534679Y+1387311D01*
X-3595686Y+1469768D01*
X-3652910Y+1555091D01*
X-3706181Y+1643224D01*
X-3755290Y+1734061D01*
X-3800020Y+1827461D01*
X-3840229Y+1923442D01*
X-3875694Y+2021848D01*
X-3906244Y+2122656D01*
X-3931669Y+2225741D01*
X-3951796Y+2331093D01*
X-3966419Y+2438622D01*
X-3975318Y+2547968D01*
X-3976709Y+2617480D01*
X-3965702Y+2679674D01*
X-3948401Y+2727324D01*
X-3927434Y+2774257D01*
X-3903698Y+2818328D01*
X-3877361Y+2859414D01*
X-3848568Y+2897423D01*
X-3817481Y+2932239D01*
X-3784225Y+2963788D01*
X-3748936Y+2991978D01*
X-3711692Y+3016749D01*
X-3672589Y+3038014D01*
X-3631654Y+3055701D01*
X-3588935Y+3069704D01*
X-3544421Y+3079910D01*
X-3498890Y+3086063D01*
X-3447839Y+3087375D01*
X-3389479Y+3086022D01*
X-3332453Y+3079544D01*
X-3277357Y+3068944D01*
X-3225103Y+3054558D01*
X-3175979Y+3036668D01*
X-3130218Y+3015545D01*
X-3088147Y+2991522D01*
X-3049951Y+2964884D01*
X-3015878Y+2935975D01*
X-2986075Y+2905090D01*
X-2960687Y+2872547D01*
X-2939773Y+2838566D01*
X-2923367Y+2803303D01*
X-2911514Y+2766851D01*
X-2904493Y+2730278D01*
X-2901599Y+2647916D01*
X-2893580Y+2563022D01*
X-2882846Y+2498325D01*
X-2868190Y+2436309D01*
X-2849346Y+2375453D01*
X-2826334Y+2315879D01*
X-2799198Y+2257734D01*
X-2767977Y+2201127D01*
X-2732749Y+2146204D01*
X-2692607Y+2091745D01*
X-2603651Y+1992212D01*
X-2498487Y+1899383D01*
X-2378597Y+1814887D01*
X-2244270Y+1739056D01*
X-2095731Y+1672205D01*
X-1933107Y+1614638D01*
X-1756451Y+1566676D01*
X-1565800Y+1528673D01*
X-1361194Y+1501014D01*
X-1142590Y+1484104D01*
X-952084Y+1478401D01*
X-837916Y+1478401D01*
X-778401Y+1537916D01*
X-778401Y+1622084D01*
X-837916Y+1681599D01*
X-940346Y+1685864D01*
X-994724Y+1699205D01*
X-1049348Y+1722826D01*
X-1103369Y+1756804D01*
X-1156428Y+1801345D01*
X-1207873Y+1856383D01*
X-1256999Y+1921637D01*
X-1303088Y+1996603D01*
X-1345510Y+2080706D01*
X-1383703Y+2173316D01*
X-1417145Y+2273735D01*
X-1445399Y+2381341D01*
X-1468028Y+2495425D01*
X-1484647Y+2615343D01*
X-1494853Y+2740115D01*
X-1497636Y+2874989D01*
X-1496430Y+2949183D01*
X-1490773Y+3026385D01*
X-1481419Y+3102574D01*
X-1468478Y+3177371D01*
X-1452050Y+3250642D01*
X-1432213Y+3322367D01*
X-1409067Y+3392412D01*
X-1382680Y+3460768D01*
X-1353157Y+3527297D01*
X-1321134Y+3590835D01*
X-1246504Y+3715206D01*
X-1161308Y+3829979D01*
X-1065573Y+3935573D01*
X-959979Y+4031308D01*
X-845210Y+4116501D01*
X-720825Y+4191141D01*
X-657308Y+4223153D01*
X-590751Y+4252688D01*
X-522449Y+4279054D01*
X-452349Y+4302218D01*
X-380642Y+4322050D01*
X-307368Y+4338479D01*
X-232579Y+4351418D01*
X-156382Y+4360774D01*
X-79183Y+4366430D01*
X+0Y+4367717D01*
X+79183Y+4366430D01*
X+723538Y+3483953D02*
X+811848Y+3395643D01*
X+811848Y+3128654D01*
X+704939Y+3021745D01*
X+704939Y+2907761D01*
X+679539Y+2907761D01*
X+679539Y-1543655D01*
X+437039Y-1786155D01*
X+437039Y-1875959D01*
X+323959Y-1989039D01*
X+183039Y-1989039D01*
X+183039Y-2129959D01*
X+69959Y-2243039D01*
X-89959Y-2243039D01*
X-203039Y-2129959D01*
X-203039Y-1989039D01*
X-343959Y-1989039D01*
X-457039Y-1875959D01*
X-457039Y-1716041D01*
X-343959Y-1602961D01*
X-184041Y-1602961D01*
X-96118Y-1690884D01*
X-6973Y-1601739D01*
X-85220Y-1601739D01*
X-205739Y-1481220D01*
X-205739Y-1310780D01*
X-85220Y-1190261D01*
X+34505Y-1190261D01*
X+130621Y-1094145D01*
X+130621Y-918081D01*
X+233161Y-918081D01*
X+233161Y-257039D01*
X+174041Y-257039D01*
X+60961Y-143959D01*
X+60961Y-3039D01*
X-60961Y-3039D01*
X-60961Y-143959D01*
X-174041Y-257039D01*
X-333959Y-257039D01*
X-447039Y-143959D01*
X-447039Y+15959D01*
X-333959Y+129039D01*
X-193039Y+129039D01*
X-193039Y+269959D01*
X-79959Y+383039D01*
X+79959Y+383039D01*
X+193039Y+269959D01*
X+193039Y+129039D01*
X+333959Y+129039D01*
X+420461Y+42537D01*
X+420461Y+545061D01*
X+309822Y+545061D01*
X+247000Y+607883D01*
X+184178Y+545061D01*
X+55822Y+545061D01*
X-7000Y+607883D01*
X-69822Y+545061D01*
X-198178Y+545061D01*
X-233061Y+579944D01*
X-233061Y+545061D01*
X-542939Y+545061D01*
X-542939Y+854939D01*
X-233061Y+854939D01*
X-233061Y+820056D01*
X-198178Y+854939D01*
X-144295Y+854939D01*
X-30203Y+969031D01*
X-178429Y+969031D01*
X-178429Y+1250969D01*
X+3161Y+1250969D01*
X+3161Y+1359722D01*
X-7000Y+1369883D01*
X-69822Y+1307061D01*
X-198178Y+1307061D01*
X-261000Y+1369883D01*
X-323822Y+1307061D01*
X-452178Y+1307061D01*
X-542939Y+1397822D01*
X-542939Y+1526178D01*
X-452178Y+1616939D01*
X-418295Y+1616939D01*
X-339379Y+1695855D01*
X-339379Y+1771919D01*
X-29559Y+1771919D01*
X-29559Y+2438391D01*
X-298589Y+2438391D01*
X-298589Y+2801609D01*
X-1411Y+2801609D01*
X-1411Y+2633823D01*
X+1411Y+2636645D01*
X+1411Y+2801609D01*
X+246811Y+2801609D01*
X+246811Y+2921571D01*
X+206171Y+2921571D01*
X+206171Y+2930462D01*
X-346171Y+2930461D01*
X-346171Y+2921571D01*
X-535061Y+2921571D01*
X-535061Y+2907761D01*
X-844939Y+2907761D01*
X-844939Y+3021745D01*
X-954680Y+3131486D01*
X-954680Y+3388447D01*
X-821232Y+3521895D01*
X+685596Y+3521895D01*
X+723538Y+3483953D01*
X+85220Y-585739D02*
X-85220Y-585739D01*
X-205739Y-465220D01*
X-205739Y-294780D01*
X-85220Y-174261D01*
X+85220Y-174261D01*
X+205739Y-294780D01*
X+205739Y-465220D01*
X+85220Y-585739D01*
X-443039Y+2006961D02*
X-443039Y+2393039D01*
X-56961Y+2393039D01*
X-56961Y+2006961D01*
X-443039Y+2006961D01*
D13*
X-447039Y-64000D02*
X-254000Y-64000D01*
X-60961Y-64000D02*
X-254000Y-64000D01*
X-254000Y-257039D02*
X-254000Y-64000D01*
X-254000Y+129039D02*
X-254000Y-64000D01*
X-457039Y-1796000D02*
X-264000Y-1796000D01*
X-264000Y-1602961D02*
X-264000Y-1796000D01*
X-264000Y-1989039D02*
X-264000Y-1796000D01*
X-542939Y+700000D02*
X-388000Y+700000D01*
X-388000Y+545061D02*
X-388000Y+700000D01*
X-388000Y+854939D02*
X-388000Y+700000D01*
X-298589Y+2620000D02*
X-150000Y+2620000D01*
X-150000Y+2801609D02*
X-150000Y+2620000D01*
X-150000Y+2438391D02*
X-150000Y+2620000D01*
X-250000Y+2006961D02*
X-250000Y+2200000D01*
X-250000Y+2393039D02*
X-250000Y+2200000D01*
X-56961Y+2200000D02*
X-250000Y+2200000D01*
X-443039Y+2200000D02*
X-250000Y+2200000D01*
X-178429Y+1110000D02*
X-40000Y+1110000D01*
X-40000Y+1250969D02*
X-40000Y+1110000D01*
X-40000Y+969031D02*
X-40000Y+1110000D01*
D14*
X+254000Y-64000D03*
X+0Y+190000D03*
X-254000Y-64000D03*
X-264000Y-1796000D03*
X-10000Y-2050000D03*
X+244000Y-1796000D03*
D15*
X-388000Y+700000D03*
D16*
X-134000Y+700000D03*
X+120000Y+700000D03*
X+374000Y+700000D03*
X+374000Y+1462000D03*
X+120000Y+1462000D03*
X-134000Y+1462000D03*
X-388000Y+1462000D03*
D17*
X-510000Y+3060000D03*
X-510000Y+3260000D03*
X+370000Y+3060000D03*
X+370000Y+3260000D03*
D18*
X-690000Y+3263360D03*
X-690000Y+3050000D03*
X+550000Y+3263360D03*
X+550000Y+3050000D03*
D19*
X+0Y-380000D03*
X+0Y-1396000D03*
D70*
X+250000Y-1040000D03*
X+350000Y-1040000D03*
D71*
X+350000Y-1190000D03*
X+350000Y-1290000D03*
D70*
X-220000Y+1650000D03*
X-120000Y+1650000D03*
X+10000Y+1650000D03*
X+110000Y+1650000D03*
D20*
X+150000Y+2620000D03*
X-150000Y+2620000D03*
D21*
X+240000Y+2204000D03*
X-250000Y+2200000D03*
D22*
X+120000Y+1110000D03*
X-40000Y+1110000D03*
M02*
