G04 PROTEUS RS274X GERBER FILE*
%FSLAX45Y45*%
%MOMM*%
G01*
%ADD10C,0.762000*%
%ADD11C,0.508000*%
%ADD23C,0.254000*%
%ADD14C,2.032000*%
%ADD15R,1.270000X1.270000*%
%ADD16C,1.270000*%
%ADD19C,2.286000*%
%ADD21R,2.032000X2.032000*%
%TD.AperFunction*%
G36*
X+980000Y+1666825D02*
X+944191Y+1658039D01*
X+849489Y+1653659D01*
X+796341Y+1600511D01*
X+796341Y+1539489D01*
X+839489Y+1496341D01*
X+930511Y+1496341D01*
X+980000Y+1497741D01*
X+980000Y-2350000D01*
X-1060000Y-2350000D01*
X-1060000Y+1509721D01*
X-940511Y+1506341D01*
X-849489Y+1506341D01*
X-806341Y+1549489D01*
X-806341Y+1610511D01*
X-849489Y+1653659D01*
X-944191Y+1658039D01*
X-1003661Y+1672630D01*
X-1060000Y+1696992D01*
X-1060000Y+3580000D01*
X+980000Y+3580000D01*
X+980000Y+1666825D01*
G37*
%LPC*%
G36*
X+392399Y+2051601D02*
X+213323Y+2051601D01*
X-299101Y+1539177D01*
X-299101Y+1534744D01*
X-273701Y+1509344D01*
X-273701Y+1473423D01*
X-248299Y+1448021D01*
X-248299Y+1509344D01*
X-181344Y+1576299D01*
X-86656Y+1576299D01*
X-19701Y+1509344D01*
X-19701Y+1414656D01*
X-86656Y+1347701D01*
X-147979Y+1347701D01*
X+385423Y+814299D01*
X+421344Y+814299D01*
X+488299Y+747344D01*
X+488299Y+652656D01*
X+421344Y+585701D01*
X+342899Y+585701D01*
X+342899Y+62626D01*
X+406399Y-874D01*
X+406399Y-127126D01*
X+317126Y-216399D01*
X+190874Y-216399D01*
X+101601Y-127126D01*
X+101601Y-874D01*
X+165101Y+62626D01*
X+165101Y+529177D01*
X+108577Y+585701D01*
X+72656Y+585701D01*
X+5701Y+652656D01*
X+5701Y+747344D01*
X+72656Y+814299D01*
X+133979Y+814299D01*
X-399423Y+1347701D01*
X-435344Y+1347701D01*
X-502299Y+1414656D01*
X-502299Y+1509344D01*
X-476899Y+1534744D01*
X-476899Y+1612823D01*
X+87601Y+2177323D01*
X+87601Y+2356399D01*
X+392399Y+2356399D01*
X+392399Y+2051601D01*
G37*
G36*
X+152399Y+253126D02*
X+152399Y+126874D01*
X+88899Y+63374D01*
X+88899Y-235414D01*
X+165099Y-311614D01*
X+165099Y-448386D01*
X+68386Y-545099D01*
X-68386Y-545099D01*
X-165099Y-448386D01*
X-165099Y-311614D01*
X-88899Y-235414D01*
X-88899Y+63374D01*
X-152399Y+126874D01*
X-152399Y+253126D01*
X-63126Y+342399D01*
X+63126Y+342399D01*
X+152399Y+253126D01*
G37*
G36*
X-406399Y-127126D02*
X-406399Y-874D01*
X-317126Y+88399D01*
X-190874Y+88399D01*
X-101601Y-874D01*
X-101601Y-127126D01*
X-190874Y-216399D01*
X-317126Y-216399D01*
X-406399Y-127126D01*
G37*
G36*
X-111601Y-1732874D02*
X-111601Y-1859126D01*
X-200874Y-1948399D01*
X-327126Y-1948399D01*
X-416399Y-1859126D01*
X-416399Y-1732874D01*
X-327126Y-1643601D01*
X-200874Y-1643601D01*
X-111601Y-1732874D01*
G37*
G36*
X+142399Y-1986874D02*
X+142399Y-2113126D01*
X+53126Y-2202399D01*
X-73126Y-2202399D01*
X-162399Y-2113126D01*
X-162399Y-1986874D01*
X-73126Y-1897601D01*
X+53126Y-1897601D01*
X+142399Y-1986874D01*
G37*
G36*
X+396399Y-1732874D02*
X+396399Y-1859126D01*
X+307126Y-1948399D01*
X+180874Y-1948399D01*
X+91601Y-1859126D01*
X+91601Y-1732874D01*
X+180874Y-1643601D01*
X+307126Y-1643601D01*
X+396399Y-1732874D01*
G37*
G36*
X-502299Y+814299D02*
X-273701Y+814299D01*
X-273701Y+585701D01*
X-502299Y+585701D01*
X-502299Y+814299D01*
G37*
G36*
X-248299Y+652656D02*
X-248299Y+747344D01*
X-181344Y+814299D01*
X-86656Y+814299D01*
X-19701Y+747344D01*
X-19701Y+652656D01*
X-86656Y+585701D01*
X-181344Y+585701D01*
X-248299Y+652656D01*
G37*
G36*
X+259701Y+1414656D02*
X+259701Y+1509344D01*
X+326656Y+1576299D01*
X+421344Y+1576299D01*
X+488299Y+1509344D01*
X+488299Y+1414656D01*
X+421344Y+1347701D01*
X+326656Y+1347701D01*
X+259701Y+1414656D01*
G37*
G36*
X+5701Y+1414656D02*
X+5701Y+1509344D01*
X+72656Y+1576299D01*
X+167344Y+1576299D01*
X+234299Y+1509344D01*
X+234299Y+1414656D01*
X+167344Y+1347701D01*
X+72656Y+1347701D01*
X+5701Y+1414656D01*
G37*
G36*
X+68386Y-1561099D02*
X-68386Y-1561099D01*
X-165099Y-1464386D01*
X-165099Y-1327614D01*
X-68386Y-1230901D01*
X+68386Y-1230901D01*
X+165099Y-1327614D01*
X+165099Y-1464386D01*
X+68386Y-1561099D01*
G37*
G36*
X-402399Y+2047601D02*
X-402399Y+2352399D01*
X-97601Y+2352399D01*
X-97601Y+2047601D01*
X-402399Y+2047601D01*
G37*
%LPD*%
D10*
X+374000Y+700000D02*
X-388000Y+1462000D01*
X+254000Y-64000D02*
X+254000Y+566000D01*
X+120000Y+700000D01*
X+0Y-380000D02*
X+0Y+190000D01*
X+240000Y+2204000D02*
X-388000Y+1576000D01*
X-388000Y+1462000D01*
D11*
X+980000Y+1666825D02*
X+944191Y+1658039D01*
X+849489Y+1653659D01*
X+796341Y+1600511D01*
X+796341Y+1539489D01*
X+839489Y+1496341D01*
X+930511Y+1496341D01*
X+980000Y+1497741D01*
X+980000Y-2350000D01*
X-1060000Y-2350000D01*
X-1060000Y+1509721D01*
X-940511Y+1506341D01*
X-849489Y+1506341D01*
X-806341Y+1549489D01*
X-806341Y+1610511D01*
X-849489Y+1653659D01*
X-944191Y+1658039D01*
X-1003661Y+1672630D01*
X-1060000Y+1696992D01*
X-1060000Y+3580000D01*
X+980000Y+3580000D01*
X+980000Y+1666825D01*
X+392399Y+2051601D02*
X+213323Y+2051601D01*
X-299101Y+1539177D01*
X-299101Y+1534744D01*
X-273701Y+1509344D01*
X-273701Y+1473423D01*
X-248299Y+1448021D01*
X-248299Y+1509344D01*
X-181344Y+1576299D01*
X-86656Y+1576299D01*
X-19701Y+1509344D01*
X-19701Y+1414656D01*
X-86656Y+1347701D01*
X-147979Y+1347701D01*
X+385423Y+814299D01*
X+421344Y+814299D01*
X+488299Y+747344D01*
X+488299Y+652656D01*
X+421344Y+585701D01*
X+342899Y+585701D01*
X+342899Y+62626D01*
X+406399Y-874D01*
X+406399Y-127126D01*
X+317126Y-216399D01*
X+190874Y-216399D01*
X+101601Y-127126D01*
X+101601Y-874D01*
X+165101Y+62626D01*
X+165101Y+529177D01*
X+108577Y+585701D01*
X+72656Y+585701D01*
X+5701Y+652656D01*
X+5701Y+747344D01*
X+72656Y+814299D01*
X+133979Y+814299D01*
X-399423Y+1347701D01*
X-435344Y+1347701D01*
X-502299Y+1414656D01*
X-502299Y+1509344D01*
X-476899Y+1534744D01*
X-476899Y+1612823D01*
X+87601Y+2177323D01*
X+87601Y+2356399D01*
X+392399Y+2356399D01*
X+392399Y+2051601D01*
X+152399Y+253126D02*
X+152399Y+126874D01*
X+88899Y+63374D01*
X+88899Y-235414D01*
X+165099Y-311614D01*
X+165099Y-448386D01*
X+68386Y-545099D01*
X-68386Y-545099D01*
X-165099Y-448386D01*
X-165099Y-311614D01*
X-88899Y-235414D01*
X-88899Y+63374D01*
X-152399Y+126874D01*
X-152399Y+253126D01*
X-63126Y+342399D01*
X+63126Y+342399D01*
X+152399Y+253126D01*
X-406399Y-127126D02*
X-406399Y-874D01*
X-317126Y+88399D01*
X-190874Y+88399D01*
X-101601Y-874D01*
X-101601Y-127126D01*
X-190874Y-216399D01*
X-317126Y-216399D01*
X-406399Y-127126D01*
X-111601Y-1732874D02*
X-111601Y-1859126D01*
X-200874Y-1948399D01*
X-327126Y-1948399D01*
X-416399Y-1859126D01*
X-416399Y-1732874D01*
X-327126Y-1643601D01*
X-200874Y-1643601D01*
X-111601Y-1732874D01*
X+142399Y-1986874D02*
X+142399Y-2113126D01*
X+53126Y-2202399D01*
X-73126Y-2202399D01*
X-162399Y-2113126D01*
X-162399Y-1986874D01*
X-73126Y-1897601D01*
X+53126Y-1897601D01*
X+142399Y-1986874D01*
X+396399Y-1732874D02*
X+396399Y-1859126D01*
X+307126Y-1948399D01*
X+180874Y-1948399D01*
X+91601Y-1859126D01*
X+91601Y-1732874D01*
X+180874Y-1643601D01*
X+307126Y-1643601D01*
X+396399Y-1732874D01*
X-502299Y+814299D02*
X-273701Y+814299D01*
X-273701Y+585701D01*
X-502299Y+585701D01*
X-502299Y+814299D01*
X-248299Y+652656D02*
X-248299Y+747344D01*
X-181344Y+814299D01*
X-86656Y+814299D01*
X-19701Y+747344D01*
X-19701Y+652656D01*
X-86656Y+585701D01*
X-181344Y+585701D01*
X-248299Y+652656D01*
X+259701Y+1414656D02*
X+259701Y+1509344D01*
X+326656Y+1576299D01*
X+421344Y+1576299D01*
X+488299Y+1509344D01*
X+488299Y+1414656D01*
X+421344Y+1347701D01*
X+326656Y+1347701D01*
X+259701Y+1414656D01*
X+5701Y+1414656D02*
X+5701Y+1509344D01*
X+72656Y+1576299D01*
X+167344Y+1576299D01*
X+234299Y+1509344D01*
X+234299Y+1414656D01*
X+167344Y+1347701D01*
X+72656Y+1347701D01*
X+5701Y+1414656D01*
X+68386Y-1561099D02*
X-68386Y-1561099D01*
X-165099Y-1464386D01*
X-165099Y-1327614D01*
X-68386Y-1230901D01*
X+68386Y-1230901D01*
X+165099Y-1327614D01*
X+165099Y-1464386D01*
X+68386Y-1561099D01*
X-402399Y+2047601D02*
X-402399Y+2352399D01*
X-97601Y+2352399D01*
X-97601Y+2047601D01*
X-402399Y+2047601D01*
D23*
X-406399Y-64000D02*
X-254000Y-64000D01*
X-101601Y-64000D02*
X-254000Y-64000D01*
X-254000Y-216399D02*
X-254000Y-64000D01*
X-254000Y+88399D02*
X-254000Y-64000D01*
X-111601Y-1796000D02*
X-264000Y-1796000D01*
X-416399Y-1796000D02*
X-264000Y-1796000D01*
X-264000Y-1643601D02*
X-264000Y-1796000D01*
X-264000Y-1948399D02*
X-264000Y-1796000D01*
X-502299Y+700000D02*
X-388000Y+700000D01*
X-273701Y+700000D02*
X-388000Y+700000D01*
X-388000Y+585701D02*
X-388000Y+700000D01*
X-388000Y+814299D02*
X-388000Y+700000D01*
X-250000Y+2047601D02*
X-250000Y+2200000D01*
X-250000Y+2352399D02*
X-250000Y+2200000D01*
X-97601Y+2200000D02*
X-250000Y+2200000D01*
X-402399Y+2200000D02*
X-250000Y+2200000D01*
D14*
X+254000Y-64000D03*
X+0Y+190000D03*
X-254000Y-64000D03*
X-264000Y-1796000D03*
X-10000Y-2050000D03*
X+244000Y-1796000D03*
D15*
X-388000Y+700000D03*
D16*
X-134000Y+700000D03*
X+120000Y+700000D03*
X+374000Y+700000D03*
X+374000Y+1462000D03*
X+120000Y+1462000D03*
X-134000Y+1462000D03*
X-388000Y+1462000D03*
D19*
X+0Y-380000D03*
X+0Y-1396000D03*
D21*
X+240000Y+2204000D03*
X-250000Y+2200000D03*
M02*
