G04 PROTEUS RS274X GERBER FILE*
%FSLAX45Y45*%
%MOMM*%
G01*
%ADD24C,0.203200*%
%ADD34C,0.127000*%
%ADD35C,0.063500*%
%TD.AperFunction*%
D24*
X+254000Y-500D02*
X+254000Y-127500D01*
X+190500Y-64000D02*
X+317500Y-64000D01*
X+0Y+253500D02*
X+0Y+126500D01*
X-63500Y+190000D02*
X+63500Y+190000D01*
X-254000Y-500D02*
X-254000Y-127500D01*
X-317500Y-64000D02*
X-190500Y-64000D01*
X-264000Y-1732500D02*
X-264000Y-1859500D01*
X-327500Y-1796000D02*
X-200500Y-1796000D01*
X-10000Y-1986500D02*
X-10000Y-2113500D01*
X-73500Y-2050000D02*
X+53500Y-2050000D01*
X+244000Y-1732500D02*
X+244000Y-1859500D01*
X+180500Y-1796000D02*
X+307500Y-1796000D01*
X-388000Y+763500D02*
X-388000Y+636500D01*
X-451500Y+700000D02*
X-324500Y+700000D01*
X-134000Y+763500D02*
X-134000Y+636500D01*
X-197500Y+700000D02*
X-70500Y+700000D01*
X+120000Y+763500D02*
X+120000Y+636500D01*
X+56500Y+700000D02*
X+183500Y+700000D01*
X+374000Y+763500D02*
X+374000Y+636500D01*
X+310500Y+700000D02*
X+437500Y+700000D01*
X+374000Y+1525500D02*
X+374000Y+1398500D01*
X+310500Y+1462000D02*
X+437500Y+1462000D01*
X+120000Y+1525500D02*
X+120000Y+1398500D01*
X+56500Y+1462000D02*
X+183500Y+1462000D01*
X-134000Y+1525500D02*
X-134000Y+1398500D01*
X-197500Y+1462000D02*
X-70500Y+1462000D01*
X-388000Y+1525500D02*
X-388000Y+1398500D01*
X-451500Y+1462000D02*
X-324500Y+1462000D01*
X-44901Y-335099D02*
X+44901Y-424901D01*
X-44901Y-424901D02*
X+44901Y-335099D01*
X-44901Y-1351099D02*
X+44901Y-1440901D01*
X-44901Y-1440901D02*
X+44901Y-1351099D01*
X+240000Y+2267500D02*
X+240000Y+2140500D01*
X+176500Y+2204000D02*
X+303500Y+2204000D01*
X+195099Y+2248901D02*
X+284901Y+2159099D01*
X+195099Y+2159099D02*
X+284901Y+2248901D01*
X-250000Y+2263500D02*
X-250000Y+2136500D01*
X-313500Y+2200000D02*
X-186500Y+2200000D01*
X-294901Y+2244901D02*
X-205099Y+2155099D01*
X-294901Y+2155099D02*
X-205099Y+2244901D01*
D34*
X-5038100Y-6295400D02*
X-2393960Y-6295400D01*
X-2393960Y-5292100D01*
X-5038100Y-5292100D01*
X-5038100Y-6295400D01*
D35*
X-4570738Y-5292100D02*
X-4570738Y-6295400D01*
X-3757938Y-5292100D02*
X-3757938Y-6295400D01*
X-2924818Y-5292100D02*
X-2924818Y-6295400D01*
X-5038100Y-5565150D02*
X-2393960Y-5565150D01*
X-5038100Y-5806450D02*
X-2393960Y-5806450D01*
X-5038100Y-6047750D02*
X-2393960Y-6047750D01*
D34*
X-4980950Y-5455930D02*
X-4965710Y-5471170D01*
X-4904750Y-5471170D01*
X-4889510Y-5455930D01*
X-4889510Y-5440690D01*
X-4904750Y-5425450D01*
X-4965710Y-5425450D01*
X-4980950Y-5410210D01*
X-4980950Y-5394970D01*
X-4965710Y-5379730D01*
X-4904750Y-5379730D01*
X-4889510Y-5394970D01*
X-4767590Y-5379730D02*
X-4859030Y-5471170D01*
X-4859030Y-5379730D02*
X-4813310Y-5425450D01*
X-4737110Y-5471170D02*
X-4737110Y-5379730D01*
X-4691390Y-5425450D01*
X-4645670Y-5379730D01*
X-4645670Y-5471170D01*
X-4513590Y-5455930D02*
X-4498350Y-5471170D01*
X-4437390Y-5471170D01*
X-4422150Y-5455930D01*
X-4422150Y-5440690D01*
X-4437390Y-5425450D01*
X-4498350Y-5425450D01*
X-4513590Y-5410210D01*
X-4513590Y-5394970D01*
X-4498350Y-5379730D01*
X-4437390Y-5379730D01*
X-4422150Y-5394970D01*
X-4376430Y-5379730D02*
X-4315470Y-5379730D01*
X-4345950Y-5379730D02*
X-4345950Y-5471170D01*
X-4376430Y-5471170D02*
X-4315470Y-5471170D01*
X-4269750Y-5379730D02*
X-4178310Y-5379730D01*
X-4269750Y-5471170D01*
X-4178310Y-5471170D01*
X-4056390Y-5471170D02*
X-4147830Y-5471170D01*
X-4147830Y-5379730D01*
X-4056390Y-5379730D01*
X-4147830Y-5425450D02*
X-4086870Y-5425450D01*
X-3700790Y-5471170D02*
X-3700790Y-5379730D01*
X-3624590Y-5379730D01*
X-3609350Y-5394970D01*
X-3609350Y-5410210D01*
X-3624590Y-5425450D01*
X-3700790Y-5425450D01*
X-3578870Y-5379730D02*
X-3578870Y-5471170D01*
X-3487430Y-5471170D01*
X-3456950Y-5471170D02*
X-3456950Y-5410210D01*
X-3426470Y-5379730D01*
X-3395990Y-5379730D01*
X-3365510Y-5410210D01*
X-3365510Y-5471170D01*
X-3456950Y-5440690D02*
X-3365510Y-5440690D01*
X-3335030Y-5379730D02*
X-3243590Y-5379730D01*
X-3289310Y-5379730D02*
X-3289310Y-5471170D01*
X-3121670Y-5471170D02*
X-3213110Y-5471170D01*
X-3213110Y-5379730D01*
X-3121670Y-5379730D01*
X-3213110Y-5425450D02*
X-3152150Y-5425450D01*
X-3091190Y-5471170D02*
X-3091190Y-5379730D01*
X-3030230Y-5379730D01*
X-2999750Y-5410210D01*
X-2999750Y-5440690D01*
X-3030230Y-5471170D01*
X-3091190Y-5471170D01*
X-2867670Y-5410210D02*
X-2837190Y-5379730D01*
X-2806710Y-5379730D01*
X-2776230Y-5410210D01*
X-2776230Y-5440690D01*
X-2806710Y-5471170D01*
X-2837190Y-5471170D01*
X-2867670Y-5440690D01*
X-2867670Y-5410210D01*
X-2806710Y-5440690D02*
X-2776230Y-5471170D01*
X-2745750Y-5379730D02*
X-2654310Y-5379730D01*
X-2700030Y-5379730D02*
X-2700030Y-5471170D01*
X-2532390Y-5379730D02*
X-2623830Y-5471170D01*
X-2623830Y-5379730D02*
X-2578110Y-5425450D01*
D24*
X-4791720Y-5615950D02*
X-4791720Y-5742950D01*
X-4855220Y-5679450D02*
X-4728220Y-5679450D01*
D34*
X-4494540Y-5704850D02*
X-4494540Y-5654050D01*
X-4481840Y-5641350D01*
X-4431040Y-5641350D01*
X-4418340Y-5654050D01*
X-4418340Y-5704850D01*
X-4431040Y-5717550D01*
X-4481840Y-5717550D01*
X-4494540Y-5704850D01*
X-4494540Y-5717550D02*
X-4418340Y-5641350D01*
X-4354840Y-5704850D02*
X-4342140Y-5704850D01*
X-4342140Y-5717550D01*
X-4354840Y-5717550D01*
X-4354840Y-5704850D01*
X-4278640Y-5641350D02*
X-4215140Y-5641350D01*
X-4215140Y-5654050D01*
X-4278640Y-5717550D01*
X-4113540Y-5654050D02*
X-4126240Y-5641350D01*
X-4164340Y-5641350D01*
X-4177040Y-5654050D01*
X-4177040Y-5704850D01*
X-4164340Y-5717550D01*
X-4126240Y-5717550D01*
X-4113540Y-5704850D01*
X-4113540Y-5692150D01*
X-4126240Y-5679450D01*
X-4177040Y-5679450D01*
X-4075440Y-5654050D02*
X-4062740Y-5641350D01*
X-4024640Y-5641350D01*
X-4011940Y-5654050D01*
X-4011940Y-5666750D01*
X-4024640Y-5679450D01*
X-4062740Y-5679450D01*
X-4075440Y-5692150D01*
X-4075440Y-5717550D01*
X-4011940Y-5717550D01*
X-3986540Y-5717550D02*
X-3986540Y-5666750D01*
X-3986540Y-5679450D02*
X-3973840Y-5666750D01*
X-3948440Y-5692150D01*
X-3923040Y-5666750D01*
X-3910340Y-5679450D01*
X-3910340Y-5717550D01*
X-3884940Y-5717550D02*
X-3884940Y-5666750D01*
X-3884940Y-5679450D02*
X-3872240Y-5666750D01*
X-3846840Y-5692150D01*
X-3821440Y-5666750D01*
X-3808740Y-5679450D01*
X-3808740Y-5717550D01*
X-3592840Y-5641350D02*
X-3669040Y-5717550D01*
X-3669040Y-5641350D02*
X-3630940Y-5679450D01*
X-3491240Y-5717550D02*
X-3567440Y-5717550D01*
X-3567440Y-5641350D01*
X-3491240Y-5641350D01*
X-3567440Y-5679450D02*
X-3516640Y-5679450D01*
X-3465840Y-5704850D02*
X-3453140Y-5717550D01*
X-3402340Y-5717550D01*
X-3389640Y-5704850D01*
X-3389640Y-5692150D01*
X-3402340Y-5679450D01*
X-3453140Y-5679450D01*
X-3465840Y-5666750D01*
X-3465840Y-5654050D01*
X-3453140Y-5641350D01*
X-3402340Y-5641350D01*
X-3389640Y-5654050D01*
X-2797820Y-5666750D02*
X-2772420Y-5641350D01*
X-2772420Y-5717550D01*
X-2645420Y-5692150D02*
X-2721620Y-5692150D01*
X-2670820Y-5641350D01*
X-2670820Y-5717550D01*
D24*
X-4836621Y-5875849D02*
X-4746819Y-5965651D01*
X-4836621Y-5965651D02*
X-4746819Y-5875849D01*
D34*
X-4469140Y-5908050D02*
X-4443740Y-5882650D01*
X-4443740Y-5958850D01*
X-4354840Y-5946150D02*
X-4342140Y-5946150D01*
X-4342140Y-5958850D01*
X-4354840Y-5958850D01*
X-4354840Y-5946150D01*
X-4291340Y-5946150D02*
X-4291340Y-5895350D01*
X-4278640Y-5882650D01*
X-4227840Y-5882650D01*
X-4215140Y-5895350D01*
X-4215140Y-5946150D01*
X-4227840Y-5958850D01*
X-4278640Y-5958850D01*
X-4291340Y-5946150D01*
X-4291340Y-5958850D02*
X-4215140Y-5882650D01*
X-4164340Y-5908050D02*
X-4138940Y-5882650D01*
X-4138940Y-5958850D01*
X-4011940Y-5895350D02*
X-4024640Y-5882650D01*
X-4062740Y-5882650D01*
X-4075440Y-5895350D01*
X-4075440Y-5946150D01*
X-4062740Y-5958850D01*
X-4024640Y-5958850D01*
X-4011940Y-5946150D01*
X-4011940Y-5933450D01*
X-4024640Y-5920750D01*
X-4075440Y-5920750D01*
X-3986540Y-5958850D02*
X-3986540Y-5908050D01*
X-3986540Y-5920750D02*
X-3973840Y-5908050D01*
X-3948440Y-5933450D01*
X-3923040Y-5908050D01*
X-3910340Y-5920750D01*
X-3910340Y-5958850D01*
X-3884940Y-5958850D02*
X-3884940Y-5908050D01*
X-3884940Y-5920750D02*
X-3872240Y-5908050D01*
X-3846840Y-5933450D01*
X-3821440Y-5908050D01*
X-3808740Y-5920750D01*
X-3808740Y-5958850D01*
X-3592840Y-5882650D02*
X-3669040Y-5958850D01*
X-3669040Y-5882650D02*
X-3630940Y-5920750D01*
X-3491240Y-5958850D02*
X-3567440Y-5958850D01*
X-3567440Y-5882650D01*
X-3491240Y-5882650D01*
X-3567440Y-5920750D02*
X-3516640Y-5920750D01*
X-3465840Y-5946150D02*
X-3453140Y-5958850D01*
X-3402340Y-5958850D01*
X-3389640Y-5946150D01*
X-3389640Y-5933450D01*
X-3402340Y-5920750D01*
X-3453140Y-5920750D01*
X-3465840Y-5908050D01*
X-3465840Y-5895350D01*
X-3453140Y-5882650D01*
X-3402340Y-5882650D01*
X-3389640Y-5895350D01*
X-2810520Y-5895350D02*
X-2797820Y-5882650D01*
X-2759720Y-5882650D01*
X-2747020Y-5895350D01*
X-2747020Y-5908050D01*
X-2759720Y-5920750D01*
X-2797820Y-5920750D01*
X-2810520Y-5933450D01*
X-2810520Y-5958850D01*
X-2747020Y-5958850D01*
D24*
X-4791720Y-6098550D02*
X-4791720Y-6225550D01*
X-4855220Y-6162050D02*
X-4728220Y-6162050D01*
X-4836621Y-6117149D02*
X-4746819Y-6206951D01*
X-4836621Y-6206951D02*
X-4746819Y-6117149D01*
D34*
X-4469140Y-6149350D02*
X-4443740Y-6123950D01*
X-4443740Y-6200150D01*
X-4354840Y-6187450D02*
X-4342140Y-6187450D01*
X-4342140Y-6200150D01*
X-4354840Y-6200150D01*
X-4354840Y-6187450D01*
X-4278640Y-6136650D02*
X-4265940Y-6123950D01*
X-4227840Y-6123950D01*
X-4215140Y-6136650D01*
X-4215140Y-6149350D01*
X-4227840Y-6162050D01*
X-4265940Y-6162050D01*
X-4278640Y-6174750D01*
X-4278640Y-6200150D01*
X-4215140Y-6200150D01*
X-4177040Y-6123950D02*
X-4113540Y-6123950D01*
X-4113540Y-6136650D01*
X-4177040Y-6200150D01*
X-4088140Y-6200150D02*
X-4088140Y-6149350D01*
X-4088140Y-6162050D02*
X-4075440Y-6149350D01*
X-4050040Y-6174750D01*
X-4024640Y-6149350D01*
X-4011940Y-6162050D01*
X-4011940Y-6200150D01*
X-3986540Y-6200150D02*
X-3986540Y-6149350D01*
X-3986540Y-6162050D02*
X-3973840Y-6149350D01*
X-3948440Y-6174750D01*
X-3923040Y-6149350D01*
X-3910340Y-6162050D01*
X-3910340Y-6200150D01*
X-3592840Y-6123950D02*
X-3669040Y-6200150D01*
X-3669040Y-6123950D02*
X-3630940Y-6162050D01*
X-3491240Y-6200150D02*
X-3567440Y-6200150D01*
X-3567440Y-6123950D01*
X-3491240Y-6123950D01*
X-3567440Y-6162050D02*
X-3516640Y-6162050D01*
X-3465840Y-6187450D02*
X-3453140Y-6200150D01*
X-3402340Y-6200150D01*
X-3389640Y-6187450D01*
X-3389640Y-6174750D01*
X-3402340Y-6162050D01*
X-3453140Y-6162050D01*
X-3465840Y-6149350D01*
X-3465840Y-6136650D01*
X-3453140Y-6123950D01*
X-3402340Y-6123950D01*
X-3389640Y-6136650D01*
X-2810520Y-6136650D02*
X-2797820Y-6123950D01*
X-2759720Y-6123950D01*
X-2747020Y-6136650D01*
X-2747020Y-6149350D01*
X-2759720Y-6162050D01*
X-2797820Y-6162050D01*
X-2810520Y-6174750D01*
X-2810520Y-6200150D01*
X-2747020Y-6200150D01*
M02*
